HIERARCHY
ROOT Pelvis
{
	OFFSET 0.000000 0.000000 0.000000
	CHANNELS 6 Xposition Yposition Zposition Zrotation Yrotation Xrotation 
	JOINT Left_hip
	{
		OFFSET 0.076090 -0.089427 -0.010735
		CHANNELS 3 Zrotation Yrotation Xrotation
		JOINT Left_knee
		{
			OFFSET 0.030200 -0.359518 -0.003501
			CHANNELS 3 Zrotation Yrotation Xrotation
			JOINT Left_ankle
			{
				OFFSET -0.011005 -0.371022 -0.045888
				CHANNELS 3 Zrotation Yrotation Xrotation
				JOINT Left_foot
				{
					OFFSET 0.023930 -0.052103 0.111084
					CHANNELS 3 Zrotation Yrotation Xrotation
					End Site
					{
						OFFSET 0.000000 0.000000 0.000000
					}
				}
			}
		}
	}
	JOINT Right_hip
	{
		OFFSET -0.073836 -0.088112 -0.007709
		CHANNELS 3 Zrotation Yrotation Xrotation
		JOINT Right_knee
		{
			OFFSET -0.035715 -0.367809 -0.006536
			CHANNELS 3 Zrotation Yrotation Xrotation
			JOINT Right_ankle
			{
				OFFSET 0.013718 -0.371958 -0.043815
				CHANNELS 3 Zrotation Yrotation Xrotation
				JOINT Right_foot
				{
					OFFSET -0.021936 -0.046387 0.114542
					CHANNELS 3 Zrotation Yrotation Xrotation
					End Site
					{
						OFFSET 0.000000 0.000000 0.000000
					}
				}
			}
		}
	}
	JOINT Spine1
	{
		OFFSET -0.001865 0.102064 -0.019455
		CHANNELS 3 Zrotation Yrotation Xrotation
		JOINT Spine2
		{
			OFFSET 0.003082 0.129260 -0.001938
			CHANNELS 3 Zrotation Yrotation Xrotation
			JOINT Spine3
			{
				OFFSET 0.001104 0.048093 0.026561
				CHANNELS 3 Zrotation Yrotation Xrotation
				JOINT Neck
				{
					OFFSET -0.002010 0.204222 -0.047183
					CHANNELS 3 Zrotation Yrotation Xrotation
					JOINT Head
					{
						OFFSET 0.005050 0.063649 0.048489
						CHANNELS 3 Zrotation Yrotation Xrotation
						End Site
						{
							OFFSET 0.000000 0.000000 0.000000
						}
					}
				}
				JOINT Left_collar
				{
					OFFSET 0.072979 0.114065 -0.031633
					CHANNELS 3 Zrotation Yrotation Xrotation
					JOINT Left_shoulder
					{
						OFFSET 0.083419 0.032092 -0.006530
						CHANNELS 3 Zrotation Yrotation Xrotation
						JOINT Left_elbow
						{
							OFFSET 0.239393 -0.012014 -0.025060
							CHANNELS 3 Zrotation Yrotation Xrotation
							JOINT Left_wrist
							{
								OFFSET 0.227297 0.008116 0.000384
								CHANNELS 3 Zrotation Yrotation Xrotation
								JOINT Left_palm
								{
									OFFSET 0.074607 -0.009248 -0.012277
									CHANNELS 3 Zrotation Yrotation Xrotation
									End Site
									{
										OFFSET 0.000000 0.000000 0.000000
									}
								}
							}
						}
					}
				}
				JOINT Right_collar
				{
					OFFSET -0.074980 0.111880 -0.037894
					CHANNELS 3 Zrotation Yrotation Xrotation
					JOINT Right_shoulder
					{
						OFFSET -0.087565 0.034353 -0.009323
						CHANNELS 3 Zrotation Yrotation Xrotation
						JOINT Right_elbow
						{
							OFFSET -0.236838 -0.013719 -0.019794
							CHANNELS 3 Zrotation Yrotation Xrotation
							JOINT Right_wrist
							{
								OFFSET -0.235053 0.006433 -0.003853
								CHANNELS 3 Zrotation Yrotation Xrotation
								JOINT Right_palm
								{
									OFFSET -0.075499 -0.006894 -0.009792
									CHANNELS 3 Zrotation Yrotation Xrotation
									End Site
									{
										OFFSET 0.000000 0.000000 0.000000
									}
								}
							}
						}
					}
				}
			}
		}
	}
}
MOTION
Frames: 16
Frame Time: 0.100000
0.000000 0.000000 0.000000 173.753238 25.420404 -13.522996 4.706752 3.870594 5.546134 -3.058688 -3.033701 -7.841049 -2.966820 9.880595 -3.365435 6.783759 8.374354 -5.095588 -0.838387 -1.623001 4.090792 3.354290 4.555785 -5.660595 7.645873 -12.517674 -7.044094 -11.109599 8.806132 3.031844 1.299976 0.709752 2.397201 1.442526 -1.211729 0.070924 0.672714 -2.040593 1.247795 3.048741 1.477933 -5.834656 -3.765175 -6.183617 11.892980 -31.425251 4.305481 2.758742 -52.216919 -6.111501 7.463436 4.222575 -8.024397 5.657298 -5.626823 -0.985764 2.603930 -9.680530 -5.510635 -12.693903 31.638228 0.712752 2.012538 48.625007 4.563917 15.563973 -6.547730 15.205409 -3.770903 3.536777 -0.354293 1.237011 12.754299 7.341390 -6.931556 
-0.000614 -0.000141 0.000509 173.657068 25.910126 -13.601836 4.688740 3.613087 5.570979 -3.041467 -3.160849 -7.891047 -3.151143 9.827407 -3.361626 7.075013 8.394143 -5.222658 -0.877226 -1.746415 4.299667 3.381675 4.347962 -5.814716 7.785306 -12.668133 -7.103230 -11.424126 8.956678 2.941979 1.317503 0.839532 2.287727 1.372161 -1.056960 0.219686 0.682299 -1.931974 1.275702 2.924620 1.420097 -5.939120 -3.730818 -6.169126 11.936801 -31.604879 4.335203 2.724551 -52.965985 -6.474630 7.539871 4.718423 -9.277060 4.792753 -5.307279 -1.132535 1.417590 -9.469572 -5.443122 -12.125458 31.659218 0.838137 2.174412 48.841728 4.571449 15.604092 -6.631072 15.285202 -4.086650 3.546571 -0.424221 0.991404 12.543057 7.260363 -6.773961 
-0.001329 -0.000334 0.001658 173.644476 26.150094 -13.679897 4.649126 3.489306 5.819282 -3.021157 -3.174565 -8.126358 -2.949232 9.745538 -3.265630 6.832793 8.386459 -5.228901 -0.919708 -1.747217 4.507517 3.394201 4.208874 -5.856782 7.484990 -12.639676 -7.192811 -10.997716 8.902753 3.280264 1.286137 0.958411 2.012569 1.382594 -1.079306 0.381823 0.654950 -1.892947 1.153172 2.842237 1.536702 -5.575400 -3.696441 -5.946675 12.115200 -31.578675 3.526848 2.939834 -53.281616 -7.280996 8.277772 4.627816 -11.502152 5.609186 -5.419235 -1.350837 1.048182 -9.498510 -5.395628 -11.815919 31.669962 1.255471 2.499186 49.037443 4.686593 15.674516 -6.711316 15.574466 -3.852300 3.790110 -0.450162 0.903812 12.459621 7.268696 -6.784913 
-0.001134 -0.000218 0.001927 173.615346 26.308142 -13.659415 4.640400 3.401764 5.739146 -3.036191 -2.996986 -8.096322 -2.293410 9.527338 -3.124086 5.938886 8.350105 -5.096449 -0.898082 -1.677099 4.460111 3.453409 3.988849 -5.782810 6.586086 -12.448280 -7.197623 -9.681043 8.502528 4.182599 1.174082 0.910119 1.827654 1.537464 -1.381922 0.370770 0.705508 -2.006724 0.832845 2.681222 1.733120 -4.963373 -3.661650 -5.634806 12.122236 -31.198291 2.008148 3.365623 -53.092310 -8.242247 9.421362 3.234953 -14.096211 8.436470 -6.776951 -1.693753 1.542482 -9.736915 -5.353020 -11.927355 31.557846 1.848992 2.918918 49.137003 4.868454 15.626159 -6.767294 16.191741 -3.065737 4.456587 -0.379733 0.762590 12.534238 7.368862 -6.955674 
0.000825 -0.000208 -0.000497 173.545016 26.764479 -13.733874 4.599096 3.206200 4.794727 -3.031251 -2.827079 -6.678718 -1.981365 9.228506 -3.280651 5.363649 8.500487 -4.983695 -0.746990 -1.753073 4.208775 3.303997 3.731449 -5.450320 6.406020 -12.562127 -7.127287 -9.596991 8.594161 4.287278 1.116502 0.772146 2.651817 1.499583 -1.745924 0.308290 0.751681 -2.126752 0.584678 2.468574 1.323217 -5.792417 -3.210841 -5.978141 11.395526 -30.963159 0.562623 3.465661 -52.626174 -9.341065 9.427207 3.138905 -15.330627 8.145090 -6.538480 -1.743951 1.253988 -9.627385 -5.298218 -11.428355 31.248843 2.818204 3.121232 49.111649 4.811376 15.690277 -6.566948 17.157823 -2.732051 4.542671 -0.301578 0.660973 12.368667 7.420415 -6.773340 
0.010620 0.000571 -0.015623 173.406107 27.879813 -13.247067 4.170323 2.451357 1.105328 -2.681587 -2.237624 -3.269652 -2.482146 9.052681 -2.816750 5.944531 8.611366 -5.510508 -0.325662 -1.627517 1.474416 2.855088 2.740705 -3.245241 7.188951 -13.078390 -6.683710 -11.612844 8.732083 3.158062 1.320701 0.861253 5.913816 1.105664 -1.801649 0.078835 0.853864 -1.949608 0.993529 1.734279 -0.046423 -10.114767 -1.850419 -7.660463 8.786035 -29.195946 -1.736580 3.146115 -53.124325 -10.525501 9.703826 3.827494 -16.934140 7.494266 -5.117555 -2.200565 0.901555 -8.918327 -4.974759 -10.662729 29.174772 5.087738 3.136331 49.987140 4.757317 15.829340 -6.358895 18.931894 -1.952744 4.146476 0.198300 0.618224 11.464366 7.147050 -6.569219 
0.030086 0.004696 -0.040497 172.895674 29.562276 -11.598607 3.930127 1.348332 -5.100836 -1.913364 -1.558444 0.326221 -3.754609 9.040790 -1.574512 7.509987 8.497500 -6.344005 0.432738 -1.346868 -4.471400 2.452229 1.044920 0.840441 8.108870 -13.594884 -6.415272 -13.888032 8.417143 1.792813 1.744784 0.902813 11.326175 0.565323 -1.476810 -0.517633 1.183182 -1.595334 1.543030 0.656981 -0.967377 -17.173642 -0.067371 -9.122312 4.196447 -26.944889 -3.616182 2.501563 -53.622462 -10.711240 10.049421 4.540763 -19.474150 6.691966 -3.303617 -3.140603 0.212328 -7.946900 -4.564153 -10.065216 26.557700 7.529717 3.045566 50.681726 4.712125 15.820929 -6.108436 21.326605 -1.387206 3.388449 1.105852 0.294467 10.219769 6.643258 -6.461046 
0.053032 0.010484 -0.065620 172.742149 31.885030 -9.012351 4.140718 0.907052 -10.277924 -2.214588 -1.406730 -0.088344 -5.535749 8.248830 1.127104 9.074555 8.491307 -6.577548 0.436320 -0.721018 -10.966337 2.231574 -0.892237 4.161507 8.284439 -14.014482 -6.252037 -14.885580 7.501040 0.959463 2.124796 0.626821 16.943235 -0.164803 -1.294555 0.150873 1.356340 -1.284321 1.906880 -0.994396 -1.102395 -23.979502 1.533684 -9.570217 -2.219742 -25.248765 -5.737850 2.452494 -53.679279 -10.153272 10.113647 5.027175 -19.851819 5.884906 -2.047791 -3.891181 -0.162372 -7.081582 -4.168430 -10.437891 24.258306 10.125677 3.499969 51.380545 5.071314 15.380782 -6.348441 23.265927 -1.467073 2.704624 1.822195 -0.473812 9.207783 6.152818 -6.705820 
0.074868 0.016052 -0.086873 172.296254 35.219152 -6.926466 4.421511 0.748930 -14.511802 -2.637378 -1.724959 -1.515471 -7.242438 6.967420 4.067041 10.064969 8.682489 -6.973204 0.052126 -0.748603 -15.660985 2.552564 -3.082774 5.324239 7.359636 -14.393425 -6.074321 -14.133474 6.597865 1.505446 3.038278 -0.094503 21.575554 -0.744341 -1.457394 0.842795 1.378111 -1.214598 2.234598 -2.907714 -0.225263 -26.375683 1.517250 -8.434555 -5.285173 -24.642876 -7.613323 2.861429 -53.881623 -9.602900 10.429215 4.481304 -17.988333 6.574272 -2.510427 -4.186718 0.420495 -6.383132 -3.825552 -11.305585 22.840112 12.147467 4.267663 51.633713 6.106235 14.921640 -5.857347 23.317810 -1.145585 2.639133 2.267363 -0.693078 8.538090 5.812437 -6.857720 
0.096148 0.023385 -0.103541 171.937482 37.718907 -5.463541 4.498673 -0.258942 -19.710904 -2.453904 -1.671540 0.959705 -7.520751 6.480294 4.807769 10.415896 9.162074 -7.895152 -0.247374 -0.544385 -20.193632 2.657240 -4.812405 7.755064 6.506169 -14.674866 -5.929876 -13.394162 5.762775 2.018187 3.679324 -0.432386 25.687558 -1.041358 -0.999102 0.652763 1.463097 -0.938239 2.816298 -4.370800 0.921951 -25.695290 0.666465 -6.849217 -4.881759 -24.157128 -7.705002 3.120840 -54.934777 -9.314611 11.274311 4.412241 -22.014149 7.450889 -2.701853 -4.829633 -0.955494 -5.766365 -3.506606 -11.057705 21.875627 12.840417 4.876575 51.661956 7.092606 14.897600 -5.915066 25.269792 -1.323832 2.392792 2.728382 -1.376066 7.949930 5.556512 -6.729973 
0.115009 0.032305 -0.117569 171.545571 38.211009 -5.689650 4.291407 -0.019171 -22.890427 -1.475157 -2.826287 4.420191 -7.568638 6.717687 3.101809 11.888159 5.758384 -5.322499 0.618406 -0.363429 -23.805050 0.642971 -7.494296 12.227846 6.277292 -9.816885 -4.804649 -11.489016 -1.690466 2.749837 4.196607 -0.650491 31.938615 -1.862307 -0.566076 1.449003 2.913691 0.339662 -0.798625 -9.396445 -3.480593 -18.114976 3.597078 -2.436249 -11.952061 -24.121347 -12.867771 7.968769 -57.308790 -6.596256 13.068288 10.356025 -34.044396 2.824854 1.060670 -10.128919 -10.262972 -5.750577 -0.956734 -10.873990 17.784746 19.264272 9.481747 53.113868 4.259786 12.449165 -8.298836 34.604357 -3.032604 4.332707 7.675848 -15.323141 4.917247 3.857071 -5.135818 
0.131178 0.043267 -0.131262 171.973375 37.856696 -2.472343 4.660544 -0.954007 -29.555826 -1.222472 -1.721788 8.484722 -6.787609 6.307301 2.801200 12.027106 7.057537 -6.345176 0.119218 0.410809 -30.979944 0.255966 -8.426724 16.994775 6.293985 -9.471929 -5.164182 -11.560121 -2.522916 2.265373 4.168225 -1.128016 35.590111 -2.640950 0.090870 -0.771851 2.851254 0.599923 -0.829170 -11.421372 -2.266103 -20.363228 2.118776 -1.132458 -13.135741 -22.174530 -14.420974 7.483805 -59.272667 -7.476776 16.035440 8.952006 -44.232014 10.804522 2.212799 -11.162893 -8.214438 -5.193882 -0.806944 -10.775149 15.536773 21.245028 9.388271 53.229853 5.729894 14.531537 -7.314752 44.094750 3.682997 1.751079 9.026120 -11.492771 4.949924 4.187639 -6.164268 
0.145204 0.056996 -0.146072 172.275504 37.572374 0.311033 4.718328 -1.197370 -36.082573 -0.934385 -1.207042 12.895050 -5.567419 5.523447 2.199143 11.727775 9.147951 -7.049076 -0.549530 0.871743 -38.215403 -0.149722 -9.150323 22.552227 6.305522 -8.830038 -5.734260 -11.680451 -3.652985 1.420768 3.882953 -1.502836 39.848322 -3.104448 0.012268 -2.360919 3.042115 0.327752 -1.138827 -13.013248 -1.319513 -22.714408 1.119676 0.190479 -16.270382 -21.100354 -16.681358 6.923922 -60.876060 -8.137505 17.213102 8.722713 -48.764862 18.011513 4.807636 -9.326184 1.968186 -6.443290 -1.507333 -14.209550 13.885848 22.990143 8.573148 54.983073 6.157160 15.495271 -7.811870 51.926060 8.046529 0.385451 8.825994 -6.888278 5.959566 5.039781 -8.170108 
0.157517 0.070804 -0.165807 172.843083 37.244515 3.374595 4.901094 -1.789007 -42.385690 -0.938176 -0.412878 16.214848 -4.846581 5.490714 2.144544 11.753569 10.170437 -8.155040 -1.650227 0.683972 -45.334905 -0.372550 -9.590435 27.212026 7.635169 -8.739654 -5.651878 -13.413409 -3.595301 0.105918 3.712866 -1.889059 44.412028 -3.231153 -0.069424 -3.842223 3.053281 0.115536 -0.559063 -14.462002 -0.815297 -24.307223 0.981573 -0.235389 -18.592399 -19.215890 -16.407241 6.630373 -61.412870 -7.643005 17.468687 5.966688 -56.801220 25.662247 11.953052 -9.775418 5.102573 -7.196541 -2.937718 -14.841861 12.935970 22.191716 8.639776 56.476152 4.250789 15.624073 -11.369117 59.379086 9.726412 -10.745917 9.695447 0.964694 9.014609 7.127006 -11.166363 
0.165961 0.091213 -0.186625 174.467170 37.179030 5.332094 4.282081 -2.765312 -48.531985 -1.530761 0.223924 22.639423 -3.657047 5.368192 0.312936 11.418264 12.112119 -10.168654 -3.666918 0.394954 -51.885245 -1.360561 -9.349247 34.159646 8.922903 -8.894352 -6.419715 -15.261969 -3.950816 -1.979712 3.763530 -2.470379 49.154573 -3.395999 -0.050366 -5.064434 2.775229 -0.315689 0.499206 -15.118217 -0.761528 -24.119327 0.511336 -0.661662 -19.204462 -17.444623 -14.820471 6.591349 -62.164004 -7.042899 16.690759 5.126660 -64.382459 30.809161 18.420813 -10.783758 7.846012 -7.533313 -3.492937 -15.496353 11.354945 20.326328 8.096897 59.047670 1.684132 15.678715 -18.953153 68.304122 5.417772 -20.313441 11.355272 2.808309 10.949709 8.337913 -12.771914 
0.166296 0.117719 -0.204814 176.485612 34.826042 7.833019 4.841517 -4.228577 -56.987640 -0.614714 3.979814 32.639536 -0.869859 5.726005 0.428670 8.300311 14.656692 -14.472196 -5.549837 -0.139710 -60.436109 -1.641398 -7.782768 43.308382 12.881870 -9.366434 -6.350025 -22.781371 -2.159302 -7.348812 2.700155 -2.071252 49.160445 -3.516788 0.558248 -5.326629 2.244791 -0.743911 1.703282 -15.168811 -0.289463 -24.151403 0.221860 0.210175 -19.047310 -16.174102 -12.445387 5.838051 -62.424771 -5.845429 16.708981 -0.203188 -71.206073 35.942009 26.829657 -11.420037 8.978727 -8.879067 -5.510545 -14.145355 10.244587 18.053971 6.970245 59.481209 2.583149 16.398750 -18.172711 72.854776 5.321182 -27.801005 14.076825 8.318670 12.939727 9.877085 -13.316538 
